<?xml version="1.0" encoding="UTF-8"?>
<svg version="1.1" xmlns="http://www.w3.org/2000/svg" width="50" height="50">
<path d="M0 0 C16.5 0 33 0 50 0 C50 16.5 50 33 50 50 C33.5 50 17 50 0 50 C0 33.5 0 17 0 0 Z " fill="#FBF8F6" transform="translate(0,0)"/>
<path d="M0 0 C4.228125 0.144375 8.45625 0.28875 12.8125 0.4375 C12.8125 16.9375 12.8125 33.4375 12.8125 50.4375 C8.584375 50.581875 4.35625 50.72625 0 50.875 C-1.3094458 50.93872803 -2.6188916 51.00245605 -3.96801758 51.06811523 C-11.77296814 51.19577592 -16.71025886 49.75958387 -23.21289062 45.43554688 C-25.56981824 43.05064386 -25.8278779 41.80295375 -25.875 38.5 C-25.57421875 36.16015625 -25.57421875 36.16015625 -25.1875 34.4375 C-24.300625 34.746875 -23.41375 35.05625 -22.5 35.375 C-19.72040845 36.2665671 -17.05613625 36.93127007 -14.1875 37.4375 C-14.1875 38.4275 -14.1875 39.4175 -14.1875 40.4375 C-13.1975 40.4375 -12.2075 40.4375 -11.1875 40.4375 C-10.8575 39.4475 -10.5275 38.4575 -10.1875 37.4375 C-8.86975804 37.04705794 -7.53082728 36.72794914 -6.1875 36.4375 C-4.2075 35.4475 -2.2275 34.4575 -0.1875 33.4375 C-0.1875 28.1575 -0.1875 22.8775 -0.1875 17.4375 C-3.8175 15.4575 -7.4475 13.4775 -11.1875 11.4375 C-11.5175 12.7575 -11.8475 14.0775 -12.1875 15.4375 C-11.5275 15.4375 -10.8675 15.4375 -10.1875 15.4375 C-9.80531233 17.09364657 -9.47354898 18.76207024 -9.1875 20.4375 C-10.1875 21.4375 -10.1875 21.4375 -12.75 21.5 C-13.554375 21.479375 -14.35875 21.45875 -15.1875 21.4375 C-15.5175 19.7875 -15.8475 18.1375 -16.1875 16.4375 C-15.1975 16.1075 -14.2075 15.7775 -13.1875 15.4375 C-13.5175 14.1175 -13.8475 12.7975 -14.1875 11.4375 C-14.81398438 11.7984375 -15.44046875 12.159375 -16.0859375 12.53125 C-16.90320312 12.9953125 -17.72046875 13.459375 -18.5625 13.9375 C-19.37460937 14.4015625 -20.18671875 14.865625 -21.0234375 15.34375 C-23.1875 16.4375 -23.1875 16.4375 -25.1875 16.4375 C-25.91255152 13.20772506 -26.01011419 10.65820202 -25.1875 7.4375 C-17.90650579 0.07008449 -9.81647903 -0.4777478 0 0 Z " fill="#0A090C" transform="translate(37.1875,-0.43749999999999994)"/>
<path d="M0 0 C7.92 0 15.84 0 24 0 C24 16.5 24 33 24 50 C16.08 50 8.16 50 0 50 C2.28053333 47.71946667 3.84409912 46.3401659 6.50390625 44.73828125 C7.16197266 44.34189453 7.82003906 43.94550781 8.49804688 43.53710938 C9.17931641 43.13298828 9.86058594 42.72886719 10.5625 42.3125 C11.24763672 41.89677734 11.93277344 41.48105469 12.63867188 41.05273438 C17.7466133 38 17.7466133 38 20 38 C20 29.42 20 20.84 20 12 C18.35 11.34 16.7 10.68 15 10 C13.72678466 9.32079197 12.46889828 8.611832 11.23046875 7.87109375 C10.56982422 7.47599609 9.90917969 7.08089844 9.22851562 6.67382812 C8.55498047 6.26583984 7.88144531 5.85785156 7.1875 5.4375 C6.49462891 5.02564453 5.80175781 4.61378906 5.08789062 4.18945312 C3.37298683 3.15713173 1.68380945 2.08229765 0 1 C0 0.67 0 0.34 0 0 Z " fill="#FBFBFB" transform="translate(26,0)"/>
<path d="M0 0 C7.59 0 15.18 0 23 0 C20.71946667 2.28053333 19.15590088 3.6598341 16.49609375 5.26171875 C15.83802734 5.65810547 15.17996094 6.05449219 14.50195312 6.46289062 C13.82068359 6.86701172 13.13941406 7.27113281 12.4375 7.6875 C11.75236328 8.10322266 11.06722656 8.51894531 10.36132812 8.94726562 C5.2533867 12 5.2533867 12 3 12 C3.08378906 12.62003906 3.16757812 13.24007813 3.25390625 13.87890625 C4.19511215 22.06382341 3.71761117 29.8192327 3 38 C3.66386719 38.23589844 4.32773438 38.47179688 5.01171875 38.71484375 C8.82036934 40.35281243 12.27119645 42.41738503 15.8125 44.5625 C16.50537109 44.97435547 17.19824219 45.38621094 17.91210938 45.81054688 C19.62701317 46.84286827 21.31619055 47.91770235 23 49 C23 49.33 23 49.66 23 50 C15.41 50 7.82 50 0 50 C0 33.5 0 17 0 0 Z " fill="#FDFCFC" transform="translate(0,0)"/>
<path d="M0 0 C1.98036486 0.97674104 3.95926133 1.95645982 5.9375 2.9375 C7.03964844 3.48277344 8.14179687 4.02804688 9.27734375 4.58984375 C12 6 12 6 13 7 C14.54979425 20.99608 14.54979425 20.99608 11.3203125 25.171875 C8.07999564 27.18965473 5.83450255 28 2 28 C1.67 28.66 1.34 29.32 1 30 C0.01 30 -0.98 30 -2 30 C-1.95875 29.0925 -1.9175 28.185 -1.875 27.25 C-1.99531556 24.1217954 -2.3914708 22.61385994 -4 20 C-3.34 20 -2.68 20 -2 20 C-2 17.03 -2 14.06 -2 11 C-0.68 10.67 0.64 10.34 2 10 C2 8.35 2 6.7 2 5 C1.34 5 0.68 5 0 5 C0 3.35 0 1.7 0 0 Z " fill="#F8F6F6" transform="translate(25,10)"/>
<path d="M0 0 C0 7.59 0 15.18 0 23 C-2.64 21.68 -5.28 20.36 -8 19 C-8 14.05 -8 9.1 -8 4 C-1.125 0 -1.125 0 0 0 Z " fill="#F3752E" transform="translate(11,19)"/>
<path d="M0 0 C0 3.3 0 6.6 0 10 C-3.96 11.98 -3.96 11.98 -8 14 C-8 10.7 -8 7.4 -8 4 C-1.125 0 -1.125 0 0 0 Z " fill="#F37731" transform="translate(11,8)"/>
<path d="M0 0 C0.99 0.33 1.98 0.66 3 1 C2.67 2.98 2.34 4.96 2 7 C2.66 7 3.32 7 4 7 C3.67 10.3 3.34 13.6 3 17 C2.01 17 1.02 17 0 17 C0.04125 16.0925 0.0825 15.185 0.125 14.25 C0.00468444 11.1217954 -0.3914708 9.61385994 -2 7 C-1.34 7 -0.68 7 0 7 C0 4.69 0 2.38 0 0 Z " fill="#868687" transform="translate(23,23)"/>
<path d="M0 0 C0.33 0.66 0.66 1.32 1 2 C2.98 1.67 4.96 1.34 7 1 C6.67 2.32 6.34 3.64 6 5 C4.35 5 2.7 5 1 5 C0.67 3.35 0.34 1.7 0 0 Z " fill="#DA6E31" transform="translate(21,16)"/>
</svg>
